<?xml version="1.0" encoding="utf-8"?>
<!-- Generator: Adobe Illustrator 16.2.1, SVG Export Plug-In . SVG Version: 6.00 Build 0)  -->
<!DOCTYPE svg PUBLIC "-//W3C//DTD SVG 1.1//EN" "http://www.w3.org/Graphics/SVG/1.1/DTD/svg11.dtd">
<svg version="1.1" id="Layer_1" xmlns="http://www.w3.org/2000/svg" xmlns:xlink="http://www.w3.org/1999/xlink" x="0px" y="0px"
	 width="792px" height="612px" viewBox="0 0 792 612" enable-background="new 0 0 792 612" xml:space="preserve">
<g>
	<path fill="#77726D" d="M425.26,233.231v26.146h-5.129v-9.163c-1.406,1.521-3.268,2.28-5.623,2.28c-2.66,0-4.825-0.95-6.535-2.812
		c-1.709-1.862-2.545-4.217-2.545-7.067c0-5.501,3.754-9.84,9.156-9.84c2.697,0,4.711,0.911,6.041,2.773v-2.355L425.26,233.231z
		 M418.764,246.567c0.949-0.913,1.405-2.204,1.405-3.876c0-1.71-0.456-3.001-1.405-3.875c-0.95-0.874-2.053-1.33-3.344-1.33
		c-1.406,0-2.546,0.456-3.457,1.406c-0.912,0.95-1.369,2.204-1.369,3.761s0.457,2.812,1.406,3.762c0.95,0.95,1.969,1.52,3.42,1.52
		S417.813,247.479,418.764,246.567z"/>
	<path fill="#D94900" d="M479.75,242.503c0,5.274-3.462,9.497-10.238,9.497h-6.561v-18.824h6.16
		C474.709,233.176,479.75,236.326,479.75,242.503z M467.801,237.625v9.954h1.625c1.54,0,2.795-0.456,3.793-1.368
		c0.999-0.913,1.584-2.14,1.584-3.708c0-1.598-0.585-2.824-1.555-3.651c-0.971-0.827-2.197-1.248-3.767-1.219L467.801,237.625z"/>
	<g>
		<path fill="#D94900" d="M446.231,246.41c0,3.796-3.265,5.59-6.332,5.59h-8.784v-18.824h6.287c2.582,0,3.838,0.513,5.035,1.54
			c1.199,1.027,1.797,2.368,1.797,4.021c0,1.255-0.471,2.11-1.24,2.966C445.076,242.53,446.231,244.243,446.231,246.41z
			 M435.793,237.082v3.573h1.82c1.169,0,1.969-0.672,1.969-1.787c0-1.1-0.648-1.787-1.969-1.787H435.793z M441.553,246.26
			c0-1.202-0.844-1.787-2.125-1.787h-3.635v3.573h3.738C440.811,248.045,441.553,247.46,441.553,246.26z"/>
		<path fill="#D94900" d="M456.365,252h-4.906v-18.824h4.906V252z"/>
	</g>
	<g>
		<path fill="#77726D" d="M369.896,252h-5.129v-18.807h5.129V252z"/>
		<path fill="#77726D" d="M393.303,233.193l-9.309,19.263h-1.71l-9.309-19.263h5.396l4.749,10.676l4.749-10.676H393.303z"/>
		<path fill="#77726D" d="M398.814,223.162c1.791,0,3.268,1.401,3.268,3.192c0,1.77-1.459,3.154-3.268,3.154
			c-1.864,0-3.268-1.463-3.268-3.154c0-1.794,1.502-3.192,3.344-3.192H398.814z M401.36,252h-5.13v-18.807h5.13V252z"/>
		<path fill="#77726D" d="M367.335,223.162c1.79,0,3.268,1.401,3.268,3.192c0,1.77-1.46,3.154-3.268,3.154
			c-1.864,0-3.268-1.463-3.268-3.154c0-1.794,1.501-3.192,3.344-3.192H367.335z"/>
		<path fill="#77726D" d="M352.797,232.737c3.878,0,6.674,1.901,8.207,4.673l-3.572,2.773c-2.293-3.439-6.111-3.358-8.055-1.254
			c-1.965,2.13-1.791,5.431,0,7.371c1.928,2.088,5.645,2.217,8.055-1.216l3.572,2.736c-1.463,2.646-4.332,4.673-8.131,4.673
			c-5.608,0-10.068-4.457-10.068-9.879C342.805,237.241,347.346,232.737,352.797,232.737z"/>
	</g>
</g>
</svg>
