<svg width="26" height="21" viewBox="0 0 26 21" fill="none" xmlns="http://www.w3.org/2000/svg">
<mask id="mask0" mask-type="alpha" maskUnits="userSpaceOnUse" x="0" y="0" width="26" height="21">
<path fill-rule="evenodd" clip-rule="evenodd" d="M0 0H26V20.6471H0V0Z" fill="white"/>
</mask>
<g mask="url(#mask0)">
<path fill-rule="evenodd" clip-rule="evenodd" d="M19.1762 0.19473C18.9888 0.00451422 18.709 -0.0522517 18.4644 0.0506573C18.2205 0.153566 18.0611 0.395568 18.0611 0.664128V3.82742H12.9999C12.6394 3.82742 12.3468 4.12486 12.3468 4.49135C12.3468 4.85783 12.6394 5.15527 12.9999 5.15527H18.7142C19.075 5.15527 19.3672 4.85783 19.3672 4.49135V2.26718L24.4236 7.40799L19.3672 12.5485V10.324C19.3672 9.95747 19.075 9.66003 18.7142 9.66003H7.93407C7.93864 9.34135 7.93864 8.93369 7.93864 8.40985V6.49608C7.93864 6.22752 7.77994 5.98552 7.53602 5.88261C7.29112 5.77937 7.01129 5.83613 6.82386 6.02668L0.191021 12.7699C-0.0636737 13.0295 -0.0636737 13.4494 0.191021 13.709L6.82353 20.4525C6.94892 20.5797 7.11545 20.6471 7.28525 20.6471C7.36949 20.6471 7.45472 20.6305 7.5357 20.5969C7.77962 20.4937 7.93831 20.252 7.93831 19.9831V16.8192H12.9999C13.3607 16.8192 13.6529 16.5214 13.6529 16.1552C13.6529 15.7884 13.3607 15.4913 12.9999 15.4913H7.28492C6.92443 15.4913 6.63186 15.7884 6.63186 16.1552V16.1629C6.63218 16.2379 6.63251 17.3679 6.63251 18.3801L1.57682 13.2393L6.63251 8.09914C6.63251 9.09138 6.63218 10.1978 6.63186 10.3104C6.6312 10.3575 6.63512 10.405 6.64459 10.4524C6.705 10.7638 6.97308 10.9879 7.28492 10.9879H18.0611V14.1515C18.0611 14.4197 18.2205 14.6621 18.4644 14.7646C18.709 14.8672 18.9885 14.8108 19.1762 14.6209L25.8087 7.87771C26.0638 7.61845 26.0638 7.19818 25.8087 6.93892L19.1762 0.19473Z" fill="#3A97D0"/>
</g>
</svg>
