<svg width="30" height="29" viewBox="0 0 30 29" fill="none" xmlns="http://www.w3.org/2000/svg">
<path fill-rule="evenodd" clip-rule="evenodd" d="M14.3181 4.09091H15.6818V0H14.3181V4.09091Z" fill="#3A97D0"/>
<path fill-rule="evenodd" clip-rule="evenodd" d="M0 15.6818H4.09091V14.3181H0V15.6818Z" fill="#3A97D0"/>
<path fill-rule="evenodd" clip-rule="evenodd" d="M25.9092 15.6818H30.0001V14.3181H25.9092V15.6818Z" fill="#3A97D0"/>
<path fill-rule="evenodd" clip-rule="evenodd" d="M22.2324 6.80404L25.1247 3.9104L26.0888 4.87449L23.1965 7.76813L22.2324 6.80404Z" fill="#3A97D0"/>
<path fill-rule="evenodd" clip-rule="evenodd" d="M15.0001 8.18188C11.2351 8.18188 8.18188 11.2351 8.18188 15.0001C8.18188 17.7942 9.86598 20.1901 12.2728 21.2428V24.5455H17.7273V21.2428C20.1342 20.1901 21.8182 17.7942 21.8182 15.0001C21.8182 11.2351 18.7664 8.18188 15.0001 8.18188ZM15.0001 9.54552C18.0082 9.54552 20.4546 11.9919 20.4546 15.0001C20.4546 17.1628 19.1701 19.1223 17.1805 19.9937L16.3637 20.351V21.2428V23.1819H13.6364V21.2428V20.351L12.8196 19.9937C10.8301 19.1223 9.54552 17.1628 9.54552 15.0001C9.54552 11.9919 11.9919 9.54552 15.0001 9.54552Z" fill="#3A97D0"/>
<path fill-rule="evenodd" clip-rule="evenodd" d="M17.7273 25.9092H12.2727V27.2728H13.6363V28.6365H16.3636V27.2728H17.7273V25.9092Z" fill="#3A97D0"/>
<path fill-rule="evenodd" clip-rule="evenodd" d="M3.91113 4.87585L4.87522 3.9104L7.76886 6.80404L6.80477 7.76813L3.91113 4.87585Z" fill="#3A97D0"/>
</svg>
