<svg width="24" height="22" viewBox="0 0 24 22" fill="none" xmlns="http://www.w3.org/2000/svg">
<path fill-rule="evenodd" clip-rule="evenodd" d="M11.4 0V4.37647H9.17651V10.6286H11.4V21.8824H13.3059V10.6286H15.5295V4.37647H13.3059V0H11.4ZM11.0824 8.75294H13.6236V6.2521H11.0824V8.75294Z" fill="#3A97D0"/>
<path fill-rule="evenodd" clip-rule="evenodd" d="M19.8705 0V10.316H17.647V16.5681H19.8705V21.8824H21.7764V16.5681H23.9999V10.316H21.7764V0H19.8705ZM19.5529 14.6924H22.094V12.1919H19.5529V14.6924Z" fill="#3A97D0"/>
<path fill-rule="evenodd" clip-rule="evenodd" d="M2.22353 0V10.316H0V16.5681H2.22353V21.8824H4.12909V16.5681H6.35294V10.316H4.12909V0H2.22353ZM1.90588 14.6924H4.44706V12.1919H1.90588V14.6924Z" fill="#3A97D0"/>
</svg>
