<svg width="24" height="24" viewBox="0 0 24 24" fill="none" xmlns="http://www.w3.org/2000/svg">
<mask id="mask0" mask-type="alpha" maskUnits="userSpaceOnUse" x="0" y="5" width="24" height="19">
<path fill-rule="evenodd" clip-rule="evenodd" d="M0.000976562 5.4458H23.592V23.5915H0.000976562V5.4458Z" fill="white"/>
</mask>
<g mask="url(#mask0)">
<path fill-rule="evenodd" clip-rule="evenodd" d="M1.81471 7.25954H2.72671H20.8673H21.7759V9.07325V20.8675V21.7761H20.8673H2.72671H1.81471V20.8675V9.07325V7.25954ZM0.90957 5.44582C0.408998 5.44239 0.000998194 5.84697 0.000998194 6.34754V6.35439V9.07325V20.8675V22.6813C-0.00243038 23.1853 0.402141 23.5898 0.902712 23.5933H0.90957H2.72671H20.8673H22.681C23.1816 23.5933 23.5896 23.1887 23.593 22.6881V22.6813V20.8675V9.07325V6.35439C23.5964 5.85382 23.1884 5.44582 22.6879 5.44582H22.681H20.8673H2.72671H0.90957Z" fill="#3A97D0"/>
</g>
<path fill-rule="evenodd" clip-rule="evenodd" d="M5.44421 0.000488281C4.94363 0.000488281 4.53906 0.408488 4.53906 0.912488V6.35706H6.35621V1.8142H17.2351V6.35706H19.0522V0.912488C19.0556 0.408488 18.6511 0.000488281 18.1471 0.000488281H5.44421Z" fill="#3A97D0"/>
</svg>
