<svg width="28" height="12" viewBox="0 0 28 12" fill="none" xmlns="http://www.w3.org/2000/svg">
<path d="M1.832 12H0.488V0.832H4.936C5.91733 0.832 6.68 1.104 7.224 1.648C7.77867 2.192 8.056 2.976 8.056 4C8.056 4.82133 7.864 5.49867 7.48 6.032C7.10667 6.55467 6.552 6.90133 5.816 7.072L8.376 12H6.856L4.44 7.2H1.832V12ZM4.936 6.048C5.46933 6.048 5.88 5.90933 6.168 5.632C6.46667 5.35467 6.616 4.96 6.616 4.448V3.616C6.616 3.104 6.46667 2.70933 6.168 2.432C5.88 2.15467 5.46933 2.016 4.936 2.016H1.832V6.048H4.936ZM10.7224 12V0.832H17.3784V2.016H12.0664V5.76H16.9144V6.944H12.0664V12H10.7224ZM19.6599 12V0.832H24.1079C25.1105 0.832 25.8785 1.12 26.4119 1.696C26.9559 2.26133 27.2279 3.04 27.2279 4.032C27.2279 5.024 26.9559 5.808 26.4119 6.384C25.8785 6.94933 25.1105 7.232 24.1079 7.232H21.0039V12H19.6599ZM21.0039 6.048H24.1079C24.6412 6.048 25.0519 5.90933 25.3399 5.632C25.6385 5.35467 25.7879 4.96 25.7879 4.448V3.616C25.7879 3.104 25.6385 2.70933 25.3399 2.432C25.0519 2.15467 24.6412 2.016 24.1079 2.016H21.0039V6.048Z" fill="#3A97D0"/>
</svg>
