<svg width="20" height="20" viewBox="0 0 20 20" fill="none" xmlns="http://www.w3.org/2000/svg">
<path fill-rule="evenodd" clip-rule="evenodd" d="M19.7558 17.9883L14.3204 12.5525C15.2675 11.2479 15.8333 9.64875 15.8333 7.91667C15.8333 3.55125 12.2821 0 7.91667 0C3.55125 0 0 3.55125 0 7.91667C0 12.2821 3.55125 15.8333 7.91667 15.8333C9.64875 15.8333 11.2479 15.2675 12.5525 14.3204L17.9883 19.7558C18.3137 20.0812 18.8412 20.0812 19.1667 19.7558L19.7558 19.1671C20.0812 18.8413 20.0812 18.3137 19.7558 17.9883ZM2.5 7.91667C2.5 4.93 4.93 2.5 7.91667 2.5C10.9033 2.5 13.3333 4.93 13.3333 7.91667C13.3333 10.9033 10.9033 13.3333 7.91667 13.3333C4.93 13.3333 2.5 10.9033 2.5 7.91667Z" fill="#3A97D0"/>
</svg>
