<svg width="254" height="43" viewBox="0 0 254 43" fill="none" xmlns="http://www.w3.org/2000/svg">
<path d="M5.632 2.912V27.104C5.632 30.8373 6.32267 33.6747 7.704 35.616C9.08533 37.52 11.512 38.472 14.984 38.472C18.456 38.472 20.8827 37.52 22.264 35.616C23.6453 33.6747 24.336 30.8373 24.336 27.104V2.912H29.04V25.984C29.04 28.8213 28.7787 31.2853 28.256 33.376C27.7707 35.4667 26.968 37.2027 25.848 38.584C24.728 39.9653 23.2533 40.992 21.424 41.664C19.632 42.336 17.4293 42.672 14.816 42.672C12.2027 42.672 10 42.336 8.208 41.664C6.45333 40.992 5.03467 39.9653 3.952 38.584C2.86933 37.2027 2.08533 35.4667 1.6 33.376C1.152 31.2853 0.928 28.8213 0.928 25.984V2.912H5.632ZM38.7131 42V13.104H43.1931V18.424H43.4731C43.9958 17.0427 44.9291 15.8107 46.2731 14.728C47.6171 13.6453 49.4651 13.104 51.8171 13.104H53.5531V17.584H50.9211C48.4945 17.584 46.5905 18.0507 45.2091 18.984C43.8651 19.88 43.1931 21.0187 43.1931 22.4V42H38.7131ZM59.2756 0.559999H63.7556V17.808H63.9796C64.7263 15.9787 65.809 14.6347 67.2276 13.776C68.6836 12.88 70.4196 12.432 72.4356 12.432C74.2276 12.432 75.8516 12.7867 77.3076 13.496C78.7636 14.2053 79.9956 15.2133 81.0036 16.52C82.049 17.8267 82.833 19.4133 83.3556 21.28C83.9156 23.1467 84.1956 25.2373 84.1956 27.552C84.1956 29.8667 83.9156 31.9573 83.3556 33.824C82.833 35.6907 82.049 37.2773 81.0036 38.584C79.9956 39.8907 78.7636 40.8987 77.3076 41.608C75.8516 42.3173 74.2276 42.672 72.4356 42.672C68.5156 42.672 65.697 40.88 63.9796 37.296H63.7556V42H59.2756V0.559999ZM71.2036 38.64C73.7423 38.64 75.7396 37.856 77.1956 36.288C78.6516 34.6827 79.3796 32.592 79.3796 30.016V25.088C79.3796 22.512 78.6516 20.44 77.1956 18.872C75.7396 17.2667 73.7423 16.464 71.2036 16.464C70.1956 16.464 69.225 16.6133 68.2916 16.912C67.3956 17.1733 66.6116 17.5467 65.9396 18.032C65.2676 18.5173 64.7263 19.1147 64.3156 19.824C63.9423 20.496 63.7556 21.224 63.7556 22.008V32.76C63.7556 33.6933 63.9423 34.5333 64.3156 35.28C64.7263 35.9893 65.2676 36.6053 65.9396 37.128C66.6116 37.6133 67.3956 37.9867 68.2916 38.248C69.225 38.5093 70.1956 38.64 71.2036 38.64ZM112.76 42C111.08 42 109.867 41.552 109.12 40.656C108.411 39.76 107.963 38.64 107.776 37.296H107.496C106.861 39.088 105.816 40.432 104.36 41.328C102.904 42.224 101.168 42.672 99.152 42.672C96.0907 42.672 93.7013 41.888 91.984 40.32C90.304 38.752 89.464 36.624 89.464 33.936C89.464 31.2107 90.4533 29.12 92.432 27.664C94.448 26.208 97.5653 25.48 101.784 25.48H107.496V22.624C107.496 20.5707 106.936 19.0027 105.816 17.92C104.696 16.8373 102.979 16.296 100.664 16.296C98.9093 16.296 97.4347 16.688 96.24 17.472C95.0827 18.256 94.112 19.3013 93.328 20.608L90.64 18.088C91.424 16.52 92.6747 15.1947 94.392 14.112C96.1093 12.992 98.2747 12.432 100.888 12.432C104.397 12.432 107.123 13.2907 109.064 15.008C111.005 16.7253 111.976 19.1147 111.976 22.176V38.08H115.28V42H112.76ZM99.88 38.864C101 38.864 102.027 38.7333 102.96 38.472C103.893 38.2107 104.696 37.8373 105.368 37.352C106.04 36.8667 106.563 36.3067 106.936 35.672C107.309 35.0373 107.496 34.3467 107.496 33.6V28.84H101.56C98.984 28.84 97.0987 29.2133 95.904 29.96C94.7467 30.7067 94.168 31.7893 94.168 33.208V34.384C94.168 35.8027 94.672 36.904 95.68 37.688C96.7253 38.472 98.1253 38.864 99.88 38.864ZM121.674 42V13.104H126.154V17.808H126.378C127.087 16.1653 128.077 14.8587 129.346 13.888C130.653 12.9173 132.389 12.432 134.554 12.432C137.541 12.432 139.893 13.4027 141.61 15.344C143.365 17.248 144.242 19.9547 144.242 23.464V42H139.762V24.248C139.762 19.0587 137.578 16.464 133.21 16.464C132.314 16.464 131.437 16.576 130.578 16.8C129.757 17.024 129.01 17.36 128.338 17.808C127.666 18.256 127.125 18.8347 126.714 19.544C126.341 20.216 126.154 21.0187 126.154 21.952V42H121.674ZM161.566 42H153.054V2.912H171.59C173.382 2.912 175.006 3.21067 176.462 3.808C177.918 4.40533 179.15 5.264 180.158 6.384C181.204 7.46666 182.006 8.77333 182.566 10.304C183.126 11.8347 183.406 13.5333 183.406 15.4C183.406 18.0507 182.809 20.3653 181.614 22.344C180.457 24.3227 178.684 25.76 176.294 26.656L183.966 42H174.502L167.67 27.664H161.566V42ZM170.526 20.496C171.796 20.496 172.785 20.1787 173.494 19.544C174.241 18.872 174.614 17.9013 174.614 16.632V14.168C174.614 12.8987 174.241 11.9467 173.494 11.312C172.785 10.64 171.796 10.304 170.526 10.304H161.566V20.496H170.526ZM190.789 42V2.912H216.717V10.472H199.301V18.48H214.141V25.984H199.301V42H190.789ZM223.546 42V2.912H242.026C243.856 2.912 245.498 3.22933 246.954 3.864C248.41 4.46133 249.642 5.30133 250.65 6.384C251.696 7.46666 252.498 8.792 253.058 10.36C253.618 11.8907 253.898 13.5707 253.898 15.4C253.898 17.2667 253.618 18.9653 253.058 20.496C252.498 22.0267 251.696 23.3333 250.65 24.416C249.642 25.4987 248.41 26.3573 246.954 26.992C245.498 27.5893 243.856 27.888 242.026 27.888H232.058V42H223.546ZM232.058 20.496H241.018C242.288 20.496 243.277 20.1787 243.986 19.544C244.733 18.872 245.106 17.9013 245.106 16.632V14.168C245.106 12.8987 244.733 11.9467 243.986 11.312C243.277 10.64 242.288 10.304 241.018 10.304H232.058V20.496Z" fill="#3A97D0"/>
</svg>
