<svg width="24" height="24" viewBox="0 0 24 24" fill="none" xmlns="http://www.w3.org/2000/svg">
<path fill-rule="evenodd" clip-rule="evenodd" d="M7.50674 9.92496C7.50674 7.44738 9.52232 5.43158 11.9999 5.43158C14.4775 5.43158 16.4935 7.44717 16.4935 9.92496C16.4935 12.4027 14.4775 14.4183 11.9999 14.4183C9.52232 14.4183 7.50674 12.4027 7.50674 9.92496ZM11.9995 15.4056C15.7943 15.4056 18.568 18.3904 18.568 19.9437H19.5554C19.5554 18.2153 17.4307 15.7597 14.4744 14.8127C16.2563 13.907 17.4809 12.0569 17.4809 9.92496C17.4809 6.90299 15.0221 4.44434 11.9999 4.44434C8.97815 4.44434 6.51927 6.90299 6.51927 9.92496C6.51927 12.0566 7.74349 13.9068 9.52536 14.8125C6.56927 15.7595 4.44434 18.2153 4.44434 19.9437H5.43158C5.43158 18.3901 8.20526 15.4056 11.9995 15.4056Z" fill="#3A97D0"/>
<path d="M23 12C23 18.0751 18.0751 23 12 23C5.92487 23 1 18.0751 1 12C1 5.92487 5.92487 1 12 1C18.0751 1 23 5.92487 23 12Z" stroke="#3A97D0" stroke-width="2"/>
</svg>
